<svg width="19" height="12" viewBox="0 0 19 12" fill="none" xmlns="http://www.w3.org/2000/svg">
<path d="M7.76306 5.02956C7.76306 5.02956 9.46616 4.90476 9.46616 2.93349C9.46616 0.962083 8.07281 0 6.30784 0H0.5V11.0165H6.30784C6.30784 11.0165 9.85331 11.127 9.85331 7.76494C9.85331 7.76497 10.0079 5.02956 7.76306 5.02956ZM5.88979 1.95806H6.30784C6.30784 1.95806 7.09729 1.95806 7.09729 3.10428C7.09729 4.25036 6.63301 4.41652 6.10639 4.41652H3.05901V1.95806H5.88979ZM6.14372 9.05851H3.05901V6.11449H6.30784C6.30784 6.11449 7.48448 6.09926 7.48448 7.62742C7.48448 8.91599 6.60564 9.04878 6.14372 9.05851ZM14.5818 2.80292C10.2896 2.80292 10.2934 7.0358 10.2934 7.0358C10.2934 7.0358 9.99894 11.2469 14.5818 11.2469C14.5818 11.2469 18.4008 11.4623 18.4008 8.31748H16.4368C16.4368 8.31748 16.5023 9.50177 14.6473 9.50177C14.6473 9.50177 12.6829 9.63171 12.6829 7.58514H18.4663C18.4663 7.58511 19.0991 2.80292 14.5818 2.80292ZM12.6613 6.11449C12.6613 6.11449 12.9012 4.41649 14.6254 4.41649C16.3494 4.41649 16.3278 6.11449 16.3278 6.11449H12.6613ZM16.7853 2.00561H12.1805V0.649013H16.7853V2.00561Z" fill="white"/>
</svg>
