<svg width="19" height="18" viewBox="0 0 19 18" fill="none" xmlns="http://www.w3.org/2000/svg">
<path d="M0.5 9C0.5 7.36799 0.902012 5.86201 1.706 4.482C2.51001 3.10199 3.60201 2.01001 4.982 1.206C6.36201 0.401994 7.86801 0 9.5 0C11.132 0 12.638 0.401994 14.018 1.206C15.398 2.01001 16.49 3.10199 17.294 4.482C18.098 5.86201 18.5 7.36799 18.5 9C18.5 10.632 18.098 12.138 17.294 13.518C16.49 14.898 15.398 15.99 14.018 16.794C12.638 17.598 11.132 18 9.5 18C7.86801 18 6.36201 17.598 4.982 16.794C3.60201 15.99 2.51001 14.898 1.706 13.518C0.902012 12.138 0.5 10.632 0.5 9ZM1.994 9C1.994 10.872 2.624 12.522 3.884 13.95C4.46 12.822 5.37201 11.748 6.62 10.728C7.86801 9.70799 9.086 9.06601 10.274 8.802C10.094 8.38201 9.92001 8.00401 9.752 7.668C7.68801 8.32801 5.45601 8.658 3.056 8.658C2.588 8.658 2.24001 8.65201 2.012 8.64C2.012 8.68801 2.00901 8.748 2.003 8.82C1.99701 8.892 1.994 8.95199 1.994 9ZM2.228 7.146C2.49201 7.16999 2.88201 7.182 3.398 7.182C5.40201 7.182 7.304 6.912 9.104 6.372C8.19201 4.752 7.19001 3.402 6.098 2.322C5.15001 2.80201 4.33701 3.46801 3.659 4.32C2.98101 5.17199 2.50401 6.11401 2.228 7.146ZM4.91 14.922C6.26601 15.978 7.79601 16.506 9.5 16.506C10.388 16.506 11.27 16.338 12.146 16.002C11.906 13.95 11.438 11.964 10.742 10.044C9.63801 10.284 8.52501 10.89 7.403 11.862C6.28101 12.834 5.45 13.854 4.91 14.922ZM7.664 1.746C8.72001 2.83801 9.698 4.19999 10.598 5.832C12.23 5.148 13.46 4.27801 14.288 3.222C12.896 2.07 11.3 1.494 9.5 1.494C8.888 1.494 8.276 1.57801 7.664 1.746ZM11.246 7.11C11.426 7.49399 11.63 7.97999 11.858 8.568C12.746 8.48399 13.712 8.442 14.756 8.442C15.5 8.442 16.238 8.46 16.97 8.496C16.874 6.86399 16.286 5.41201 15.206 4.14C14.426 5.30401 13.106 6.29401 11.246 7.11ZM12.308 9.828C12.92 11.604 13.334 13.428 13.55 15.3C14.498 14.688 15.272 13.902 15.872 12.942C16.472 11.982 16.832 10.944 16.952 9.828C16.076 9.76801 15.278 9.738 14.558 9.738C13.898 9.738 13.148 9.76801 12.308 9.828Z" fill="white"/>
</svg>
