<svg width="847" height="369" viewBox="0 0 847 369" fill="none" xmlns="http://www.w3.org/2000/svg">
<path d="M26.3103 321.598H23.1465V358.509H26.3103V321.598Z" fill="white" stroke="black" stroke-miterlimit="10"/>
<path d="M49.6682 300.36C49.6682 299.211 49.4419 298.073 49.0022 297.012C48.5625 295.95 47.9181 294.986 47.1057 294.174C46.2933 293.361 45.3288 292.717 44.2673 292.277C43.2059 291.837 42.0682 291.611 40.9193 291.611C39.8375 291.611 38.7653 291.814 37.7584 292.209C35.5129 290.241 32.8146 288.861 29.9048 288.191C26.995 287.521 23.9646 287.583 21.0846 288.371C20.4522 287.707 19.6352 287.248 18.7391 287.053C17.8431 286.859 16.9092 286.937 16.0582 287.279C15.2072 287.62 14.4783 288.209 13.9656 288.97C13.4529 289.73 13.1801 290.626 13.1824 291.543C13.1908 291.925 13.2439 292.303 13.3404 292.672C12.8776 293.113 12.426 293.575 12.0083 294.061C11.2384 293.508 10.3143 293.212 9.36671 293.214C8.76482 293.214 8.16882 293.333 7.61275 293.563C7.05668 293.793 6.55142 294.131 6.12582 294.557C5.70022 294.982 5.36262 295.487 5.13229 296.043C4.90195 296.6 4.7834 297.196 4.7834 297.797C4.78537 298.342 4.88873 298.882 5.0882 299.389C3.64558 300.142 2.48236 301.338 1.76932 302.8C1.05629 304.263 0.831002 305.916 1.12655 307.516C1.42209 309.117 2.22289 310.58 3.41137 311.691C4.59986 312.803 6.11341 313.504 7.72981 313.692C7.68117 313.945 7.65473 314.202 7.65079 314.46C7.65079 315.676 8.13331 316.843 8.99252 317.705C9.85173 318.566 11.0175 319.051 12.2341 319.054C12.5373 319.053 12.8397 319.023 13.1372 318.964C16.2025 321.968 20.2328 323.788 24.5128 324.102C28.7927 324.416 33.0456 323.204 36.5166 320.68C37.3032 321.285 38.2673 321.615 39.2598 321.617C40.1998 321.652 41.1271 321.392 41.9123 320.874C42.6975 320.356 43.3013 319.606 43.6395 318.728C43.9777 317.85 44.0333 316.889 43.7986 315.978C43.5639 315.067 43.0506 314.252 42.3304 313.647C42.3981 313.512 42.4771 313.376 42.5336 313.229C43.0241 313.4 43.5384 313.491 44.0576 313.5C44.9642 313.509 45.8545 313.259 46.6244 312.78C47.3942 312.301 48.0118 311.613 48.405 310.796C48.7981 309.979 48.9505 309.067 48.8443 308.166C48.7382 307.266 48.3778 306.414 47.8055 305.711C49.0081 304.186 49.6641 302.302 49.6682 300.36Z" fill="white" stroke="black" stroke-miterlimit="10"/>
<path d="M778.322 355.066H738.855V146.751L778.322 168.72V355.066Z" fill="white" stroke="black" stroke-miterlimit="10"/>
<path d="M555.016 359.92H583.261V151.605L555.016 173.574V359.92Z" fill="white" stroke="black" stroke-miterlimit="10"/>
<path d="M415.824 357.73H444.047V173.721L415.824 193.136V357.73Z" fill="white" stroke="black" stroke-miterlimit="10"/>
<path d="M202.428 124.388H135.988V358.508H202.428V124.388Z" fill="white" stroke="black" stroke-miterlimit="10"/>
<path d="M202.17 141.796V136.253H172.39V141.796H202.17Z" fill="white" stroke="black" stroke-miterlimit="10"/>
<path d="M202.17 151.177V145.634H172.39V151.177H202.17Z" fill="white" stroke="black" stroke-miterlimit="10"/>
<path d="M202.17 160.557V155.015H172.39V160.557H202.17Z" fill="white" stroke="black" stroke-miterlimit="10"/>
<path d="M165.73 141.785V136.242H135.95V141.785H165.73Z" fill="white" stroke="black" stroke-miterlimit="10"/>
<path d="M165.719 151.177V145.634H135.939V151.177H165.719Z" fill="white" stroke="black" stroke-miterlimit="10"/>
<path d="M165.73 160.558V155.015H135.95V160.558H165.73Z" fill="white" stroke="black" stroke-miterlimit="10"/>
<path d="M202.17 172.58V167.038H172.39V172.58H202.17Z" fill="white" stroke="black" stroke-miterlimit="10"/>
<path d="M202.17 181.973V176.43H172.39V181.973H202.17Z" fill="white" stroke="black" stroke-miterlimit="10"/>
<path d="M202.17 191.354V185.811H172.39V191.354H202.17Z" fill="white" stroke="black" stroke-miterlimit="10"/>
<path d="M165.719 172.58V167.038H135.939V172.58H165.719Z" fill="white" stroke="black" stroke-miterlimit="10"/>
<path d="M165.73 181.961V176.418H135.95V181.961H165.73Z" fill="white" stroke="black" stroke-miterlimit="10"/>
<path d="M165.719 191.343V185.8H135.939V191.343H165.719Z" fill="white" stroke="black" stroke-miterlimit="10"/>
<path d="M202.172 203.377V197.834H172.392V203.377H202.172Z" fill="white" stroke="black" stroke-miterlimit="10"/>
<path d="M202.17 212.758V207.215H172.39V212.758H202.17Z" fill="white" stroke="black" stroke-miterlimit="10"/>
<path d="M202.17 222.139V216.596H172.39V222.139H202.17Z" fill="white" stroke="black" stroke-miterlimit="10"/>
<path d="M165.73 203.366V197.823H135.95V203.366H165.73Z" fill="white" stroke="black" stroke-miterlimit="10"/>
<path d="M165.719 212.758V207.215H135.939V212.758H165.719Z" fill="white" stroke="black" stroke-miterlimit="10"/>
<path d="M165.73 222.139V216.596H135.95V222.139H165.73Z" fill="white" stroke="black" stroke-miterlimit="10"/>
<path d="M202.172 234.161V228.618H172.392V234.161H202.172Z" fill="white" stroke="black" stroke-miterlimit="10"/>
<path d="M202.17 243.554V238.011H172.39V243.554H202.17Z" fill="white" stroke="black" stroke-miterlimit="10"/>
<path d="M202.17 252.935V247.392H172.39V252.935H202.17Z" fill="white" stroke="black" stroke-miterlimit="10"/>
<path d="M165.719 234.161V228.618H135.939V234.161H165.719Z" fill="white" stroke="black" stroke-miterlimit="10"/>
<path d="M165.73 243.542V238H135.95V243.542H165.73Z" fill="white" stroke="black" stroke-miterlimit="10"/>
<path d="M165.719 252.935V247.392H135.939V252.935H165.719Z" fill="white" stroke="black" stroke-miterlimit="10"/>
<path d="M202.172 264.958V259.415H172.392V264.958H202.172Z" fill="white" stroke="black" stroke-miterlimit="10"/>
<path d="M202.17 274.339V268.796H172.39V274.339H202.17Z" fill="white" stroke="black" stroke-miterlimit="10"/>
<path d="M202.17 283.72V278.177H172.39V283.72H202.17Z" fill="white" stroke="black" stroke-miterlimit="10"/>
<path d="M165.73 264.946V259.403H135.95V264.946H165.73Z" fill="white" stroke="black" stroke-miterlimit="10"/>
<path d="M165.719 274.339V268.796H135.939V274.339H165.719Z" fill="white" stroke="black" stroke-miterlimit="10"/>
<path d="M165.719 283.72V278.177H135.939V283.72H165.719Z" fill="white" stroke="black" stroke-miterlimit="10"/>
<path d="M202.17 295.743V290.2H172.39V295.743H202.17Z" fill="white" stroke="black" stroke-miterlimit="10"/>
<path d="M202.17 305.135V299.592H172.39V305.135H202.17Z" fill="white" stroke="black" stroke-miterlimit="10"/>
<path d="M202.16 314.516V308.973H172.38V314.516H202.16Z" fill="white" stroke="black" stroke-miterlimit="10"/>
<path d="M165.719 295.743V290.2H135.939V295.743H165.719Z" fill="white" stroke="black" stroke-miterlimit="10"/>
<path d="M165.73 305.123V299.581H135.95V305.123H165.73Z" fill="white" stroke="black" stroke-miterlimit="10"/>
<path d="M165.719 314.516V308.973H135.939V314.516H165.719Z" fill="white" stroke="black" stroke-miterlimit="10"/>
<path d="M184.367 81.75V124.388" stroke="black" stroke-miterlimit="10"/>
<path d="M187.279 98.4121V123.406" stroke="black" stroke-miterlimit="10"/>
<path d="M480.792 250.519H456.6V282.376H480.792V250.519Z" fill="white" stroke="black" stroke-miterlimit="10"/>
<path d="M559.826 290.233H448.359V360.349H559.826V290.233Z" fill="white" stroke="black" stroke-miterlimit="10"/>
<path d="M560.198 360.721H447.975V289.861H560.198V360.721ZM448.731 359.965H559.453V290.606H448.731V359.965Z" fill="white" stroke="black" stroke-miterlimit="10"/>
<path d="M565.221 281.744H442.939V290.696H565.221V281.744Z" fill="white" stroke="black" stroke-miterlimit="10"/>
<path d="M565.606 291.069H442.557V281.372H565.606V291.069ZM443.313 290.324H564.838V282.117H443.313V290.324Z" fill="white" stroke="black" stroke-miterlimit="10"/>
<path d="M565.223 273.232H442.941V282.185H565.223V273.232Z" fill="white" stroke="black" stroke-miterlimit="10"/>
<path d="M565.606 282.558H442.557V272.86H565.606V282.558ZM443.313 281.812H564.838V273.605H443.313V281.812Z" fill="white" stroke="black" stroke-miterlimit="10"/>
<path d="M545.152 305.609H506.352V359.965H545.152V305.609Z" fill="white" stroke="black" stroke-miterlimit="10"/>
<path d="M476.694 305.609H462.086V319.302H476.694V305.609Z" fill="white" stroke="black" stroke-miterlimit="10"/>
<path d="M495.401 305.609H480.793V319.302H495.401V305.609Z" fill="white" stroke="black" stroke-miterlimit="10"/>
<path d="M620.718 67.6045H583.465V357.73H620.718V67.6045Z" fill="white" stroke="black" stroke-miterlimit="10"/>
<path d="M594.987 80.5791V88.9375H586.629V80.5791H594.987Z" fill="black" fill-opacity="0.5" stroke="black"/>
<path d="M608.964 80.5791V88.9375H600.605V80.5791H608.964Z" fill="black" fill-opacity="0.5" stroke="black"/>
<path d="M594.987 96.3833V104.742H586.629V96.3833H594.987Z" fill="black" fill-opacity="0.5" stroke="black"/>
<path d="M608.964 96.3833V104.742H600.605V96.3833H608.964Z" fill="black" fill-opacity="0.5" stroke="black"/>
<path d="M594.987 112.188V120.546H586.629V112.188H594.987Z" fill="black" fill-opacity="0.5" stroke="black"/>
<path d="M608.964 112.188V120.546H600.605V112.188H608.964Z" fill="black" fill-opacity="0.5" stroke="black"/>
<path d="M594.987 127.993V136.351H586.629V127.993H594.987Z" fill="black" fill-opacity="0.5" stroke="black"/>
<path d="M608.964 127.993V136.351H600.605V127.993H608.964Z" fill="black" fill-opacity="0.5" stroke="black"/>
<path d="M594.987 143.797V152.155H586.629V143.797H594.987Z" fill="black" fill-opacity="0.5" stroke="black"/>
<path d="M608.964 143.797V152.155H600.605V143.797H608.964Z" fill="black" fill-opacity="0.5" stroke="black"/>
<path d="M594.987 159.602V167.96H586.629V159.602H594.987Z" fill="black" fill-opacity="0.5" stroke="black"/>
<path d="M608.964 159.602V167.96H600.605V159.602H608.964Z" fill="black" fill-opacity="0.5" stroke="black"/>
<path d="M594.987 175.406V183.765H586.629V175.406H594.987Z" fill="black" fill-opacity="0.5" stroke="black"/>
<path d="M608.964 175.406V183.765H600.605V175.406H608.964Z" fill="black" fill-opacity="0.5" stroke="black"/>
<path d="M594.987 191.21V199.569H586.629V191.21H594.987Z" fill="black" fill-opacity="0.5" stroke="black"/>
<path d="M608.964 191.21V199.569H600.605V191.21H608.964Z" fill="black" fill-opacity="0.5" stroke="black"/>
<path d="M594.987 207.015V215.373H586.629V207.015H594.987Z" fill="black" fill-opacity="0.5" stroke="black"/>
<path d="M608.964 207.015V215.373H600.605V207.015H608.964Z" fill="black" fill-opacity="0.5" stroke="black"/>
<path d="M594.987 222.819V231.178H586.629V222.819H594.987Z" fill="black" fill-opacity="0.5" stroke="black"/>
<path d="M608.964 222.819V231.178H600.605V222.819H608.964Z" fill="black" fill-opacity="0.5" stroke="black"/>
<path d="M594.987 238.624V246.982H586.629V238.624H594.987Z" fill="black" fill-opacity="0.5" stroke="black"/>
<path d="M608.964 238.624V246.982H600.605V238.624H608.964Z" fill="black" fill-opacity="0.5" stroke="black"/>
<path d="M594.987 254.428V262.787H586.629V254.428H594.987Z" fill="black" fill-opacity="0.5" stroke="black"/>
<path d="M608.964 254.428V262.787H600.605V254.428H608.964Z" fill="black" fill-opacity="0.5" stroke="black"/>
<path d="M594.987 270.233V278.591H586.629V270.233H594.987Z" fill="black" fill-opacity="0.5" stroke="black"/>
<path d="M608.964 270.233V278.591H600.605V270.233H608.964Z" fill="black" fill-opacity="0.5" stroke="black"/>
<path d="M594.987 286.038V294.396H586.629V286.038H594.987Z" fill="black" fill-opacity="0.5" stroke="black"/>
<path d="M608.964 286.038V294.396H600.605V286.038H608.964Z" fill="black" fill-opacity="0.5" stroke="black"/>
<path d="M594.987 301.842V310.2H586.629V301.842H594.987Z" fill="black" fill-opacity="0.5" stroke="black"/>
<path d="M608.964 301.842V310.2H600.605V301.842H608.964Z" fill="black" fill-opacity="0.5" stroke="black"/>
<path d="M594.987 317.646V326.005H586.629V317.646H594.987Z" fill="black" fill-opacity="0.5" stroke="black"/>
<path d="M608.964 317.646V326.005H600.605V317.646H608.964Z" fill="black" fill-opacity="0.5" stroke="black"/>
<path d="M365.589 361.117H298.984V51.8003L365.589 84.426V361.117Z" fill="white" stroke="black" stroke-miterlimit="10"/>
<path d="M197.383 361.117H265.116V70.9912L197.383 101.594V361.117Z" fill="white" stroke="black" stroke-miterlimit="10"/>
<path d="M249.312 361.117H317.046V1L249.312 38.9913V361.117Z" fill="white" stroke="black" stroke-miterlimit="10"/>
<path d="M272.579 71.0142H263.424V106.631H272.579V71.0142Z" fill="white" stroke="black" stroke-miterlimit="10"/>
<path d="M288.101 71.0142H278.945V106.631H288.101V71.0142Z" fill="white" stroke="black" stroke-miterlimit="10"/>
<path d="M303.624 71.0142H294.469V106.631H303.624V71.0142Z" fill="white" stroke="black" stroke-miterlimit="10"/>
<path d="M272.579 128.892H263.424V164.509H272.579V128.892Z" fill="white" stroke="black" stroke-miterlimit="10"/>
<path d="M288.101 128.892H278.945V164.509H288.101V128.892Z" fill="white" stroke="black" stroke-miterlimit="10"/>
<path d="M303.624 128.892H294.469V164.509H303.624V128.892Z" fill="white" stroke="black" stroke-miterlimit="10"/>
<path d="M272.579 186.759H263.424V222.376H272.579V186.759Z" fill="white" stroke="black" stroke-miterlimit="10"/>
<path d="M288.101 186.759H278.945V222.376H288.101V186.759Z" fill="white" stroke="black" stroke-miterlimit="10"/>
<path d="M303.624 186.759H294.469V222.376H303.624V186.759Z" fill="white" stroke="black" stroke-miterlimit="10"/>
<path d="M272.579 244.638H263.424V280.254H272.579V244.638Z" fill="white" stroke="black" stroke-miterlimit="10"/>
<path d="M222.558 110.107H213.402V145.724H222.558V110.107Z" fill="white" stroke="black" stroke-miterlimit="10"/>
<path d="M222.558 167.986H213.402V203.602H222.558V167.986Z" fill="white" stroke="black" stroke-miterlimit="10"/>
<path d="M222.558 225.853H213.402V261.47H222.558V225.853Z" fill="white" stroke="black" stroke-miterlimit="10"/>
<path d="M222.558 283.731H213.402V319.348H222.558V283.731Z" fill="white" stroke="black" stroke-miterlimit="10"/>
<path d="M349.503 100.998H340.348V136.614H349.503V100.998Z" fill="white" stroke="black" stroke-miterlimit="10"/>
<path d="M349.503 158.864H340.348V194.481H349.503V158.864Z" fill="white" stroke="black" stroke-miterlimit="10"/>
<path d="M349.503 216.743H340.348V252.359H349.503V216.743Z" fill="white" stroke="black" stroke-miterlimit="10"/>
<path d="M349.503 274.621H340.348V310.238H349.503V274.621Z" fill="white" stroke="black" stroke-miterlimit="10"/>
<path d="M288.101 244.638H278.945V280.254H288.101V244.638Z" fill="white" stroke="black" stroke-miterlimit="10"/>
<path d="M303.624 244.638H294.469V280.254H303.624V244.638Z" fill="white" stroke="black" stroke-miterlimit="10"/>
<path d="M609.293 287.411H595.6V313.556H609.293V287.411Z" fill="white" stroke="black" stroke-miterlimit="10"/>
<path d="M668.041 318.264H592.777V360.79H668.041V318.264Z" fill="white" stroke="black" stroke-miterlimit="10"/>
<path d="M630.415 287.411L653.456 303.182L676.496 318.941H630.415H584.322L607.363 303.182L630.415 287.411Z" fill="white" stroke="black" stroke-miterlimit="10"/>
<path d="M657.182 325.038H651.639V346.577H657.182V325.038Z" fill="white" stroke="black" stroke-miterlimit="10"/>
<path d="M642.461 325.037H599.879V346.576H642.461V325.037Z" fill="white" stroke="black" stroke-miterlimit="10"/>
<path d="M423.987 267.306H404.039V293.575H423.987V267.306Z" fill="white" stroke="black" stroke-miterlimit="10"/>
<path d="M489.136 300.055H397.232V357.865H489.136V300.055Z" fill="white" stroke="black" stroke-miterlimit="10"/>
<path d="M489.279 358.509H396.475V299.451H489.279V358.509ZM397.142 357.881H488.657V300.079H397.142V357.881Z" fill="white" stroke="black" stroke-miterlimit="10"/>
<path d="M493.595 293.056H392.773V300.439H493.595V293.056Z" fill="white" stroke="black" stroke-miterlimit="10"/>
<path d="M493.911 300.744H392.469V292.74H493.911V300.744ZM393.09 300.134H493.29V293.361H393.09V300.134Z" fill="white" stroke="black" stroke-miterlimit="10"/>
<path d="M493.595 286.034H392.773V293.417H493.595V286.034Z" fill="white" stroke="black" stroke-miterlimit="10"/>
<path d="M493.911 293.733H392.469V285.684H493.911V293.733ZM393.09 293.112H493.29V286.339H393.09V293.112Z" fill="white" stroke="black" stroke-miterlimit="10"/>
<path d="M477.032 312.732H445.051V357.549H477.032V312.732Z" fill="white" stroke="black" stroke-miterlimit="10"/>
<path d="M420.6 312.732H408.555V324.021H420.6V312.732Z" fill="white" stroke="black" stroke-miterlimit="10"/>
<path d="M436.032 312.732H423.986V324.021H436.032V312.732Z" fill="white" stroke="black" stroke-miterlimit="10"/>
<path d="M93.3027 257.826H154.233V355.3H93.3027V257.826Z" fill="white" stroke="black"/>
<mask id="path-127-inside-1_633_806" fill="white">
<path d="M154.971 358.508H92.75V257.267H154.971V358.508ZM93.3676 357.886H154.365V257.901H93.3676V357.886Z"/>
</mask>
<path d="M154.971 358.508H92.75V257.267H154.971V358.508ZM93.3676 357.886H154.365V257.901H93.3676V357.886Z" fill="black" fill-opacity="0.5"/>
<path d="M154.971 358.508V359.508H155.971V358.508H154.971ZM92.75 358.508H91.75V359.508H92.75V358.508ZM92.75 257.267V256.267H91.75V257.267H92.75ZM154.971 257.267H155.971V256.267H154.971V257.267ZM93.3676 357.886H92.3676V358.886H93.3676V357.886ZM154.365 357.886V358.886H155.365V357.886H154.365ZM154.365 257.901H155.365V256.901H154.365V257.901ZM93.3676 257.901V256.901H92.3676V257.901H93.3676ZM154.971 358.508V357.508H92.75V358.508V359.508H154.971V358.508ZM92.75 358.508H93.75V257.267H92.75H91.75V358.508H92.75ZM92.75 257.267V258.267H154.971V257.267V256.267H92.75V257.267ZM154.971 257.267H153.971V358.508H154.971H155.971V257.267H154.971ZM93.3676 357.886V358.886H154.365V357.886V356.886H93.3676V357.886ZM154.365 357.886H155.365V257.901H154.365H153.365V357.886H154.365ZM154.365 257.901V256.901H93.3676V257.901V258.901H154.365V257.901ZM93.3676 257.901H92.3676V357.886H93.3676H94.3676V257.901H93.3676Z" fill="black" mask="url(#path-127-inside-1_633_806)"/>
<path d="M99.8848 339.479H147.687V348.515H99.8848V339.479Z" fill="black" fill-opacity="0.5" stroke="black"/>
<path d="M99.873 324.499H147.675V333.535H99.873V324.499Z" fill="black" fill-opacity="0.5" stroke="black"/>
<path d="M99.8848 309.529H147.687V318.565H99.8848V309.529Z" fill="black" fill-opacity="0.5" stroke="black"/>
<path d="M99.873 294.549H147.675V303.585H99.873V294.549Z" fill="black" fill-opacity="0.5" stroke="black"/>
<path d="M99.8848 279.58H147.687V288.616H99.8848V279.58Z" fill="black" fill-opacity="0.5" stroke="black"/>
<path d="M99.873 264.6H147.675V273.636H99.873V264.6Z" fill="black" fill-opacity="0.5" stroke="black"/>
<path d="M157.892 254.598V256.917H89.668V254.598H157.892Z" fill="white" stroke="black"/>
<mask id="path-136-inside-2_633_806" fill="white">
<path d="M158.696 257.733H88.8516V253.793H158.696V257.733ZM89.4725 257.112H158.075V254.403H89.4725V257.112Z"/>
</mask>
<path d="M158.696 257.733H88.8516V253.793H158.696V257.733ZM89.4725 257.112H158.075V254.403H89.4725V257.112Z" fill="black" fill-opacity="0.5"/>
<path d="M158.696 257.733V258.733H159.696V257.733H158.696ZM88.8516 257.733H87.8516V258.733H88.8516V257.733ZM88.8516 253.793V252.793H87.8516V253.793H88.8516ZM158.696 253.793H159.696V252.793H158.696V253.793ZM89.4725 257.112H88.4725V258.112H89.4725V257.112ZM158.075 257.112V258.112H159.075V257.112H158.075ZM158.075 254.403H159.075V253.403H158.075V254.403ZM89.4725 254.403V253.403H88.4725V254.403H89.4725ZM158.696 257.733V256.733H88.8516V257.733V258.733H158.696V257.733ZM88.8516 257.733H89.8516V253.793H88.8516H87.8516V257.733H88.8516ZM88.8516 253.793V254.793H158.696V253.793V252.793H88.8516V253.793ZM158.696 253.793H157.696V257.733H158.696H159.696V253.793H158.696ZM89.4725 257.112V258.112H158.075V257.112V256.112H89.4725V257.112ZM158.075 257.112H159.075V254.403H158.075H157.075V257.112H158.075ZM158.075 254.403V253.403H89.4725V254.403V255.403H158.075V254.403ZM89.4725 254.403H88.4725V257.112H89.4725H90.4725V254.403H89.4725Z" fill="black" mask="url(#path-136-inside-2_633_806)"/>
<path d="M85.1504 253.014V357.233" stroke="black" stroke-miterlimit="10"/>
<path d="M84.4727 253.567H93.865" stroke="black" stroke-miterlimit="10"/>
<path d="M84.4727 256.355H93.865" stroke="black" stroke-miterlimit="10"/>
<path d="M84.4727 259.132H93.865" stroke="black" stroke-miterlimit="10"/>
<path d="M84.4727 261.921H93.865" stroke="black" stroke-miterlimit="10"/>
<path d="M84.4727 264.698H93.865" stroke="black" stroke-miterlimit="10"/>
<path d="M84.4727 267.486H93.865" stroke="black" stroke-miterlimit="10"/>
<path d="M84.4727 270.264H93.865" stroke="black" stroke-miterlimit="10"/>
<path d="M84.4727 273.052H93.865" stroke="black" stroke-miterlimit="10"/>
<path d="M84.4727 275.84H93.865" stroke="black" stroke-miterlimit="10"/>
<path d="M84.4727 278.617H93.865" stroke="black" stroke-miterlimit="10"/>
<path d="M84.4727 281.406H93.865" stroke="black" stroke-miterlimit="10"/>
<path d="M84.4727 284.183H93.865" stroke="black" stroke-miterlimit="10"/>
<path d="M84.4727 286.971H93.865" stroke="black" stroke-miterlimit="10"/>
<path d="M84.4727 289.759H93.865" stroke="black" stroke-miterlimit="10"/>
<path d="M84.4727 292.537H93.865" stroke="black" stroke-miterlimit="10"/>
<path d="M84.4727 295.325H93.865" stroke="black" stroke-miterlimit="10"/>
<path d="M84.4727 298.102H93.865" stroke="black" stroke-miterlimit="10"/>
<path d="M84.4727 300.89H93.865" stroke="black" stroke-miterlimit="10"/>
<path d="M84.4727 303.679H93.865" stroke="black" stroke-miterlimit="10"/>
<path d="M84.4727 306.456H93.865" stroke="black" stroke-miterlimit="10"/>
<path d="M84.4727 309.244H93.865" stroke="black" stroke-miterlimit="10"/>
<path d="M84.4727 312.021H93.865" stroke="black" stroke-miterlimit="10"/>
<path d="M84.4727 314.81H93.865" stroke="black" stroke-miterlimit="10"/>
<path d="M84.4727 317.598H93.865" stroke="black" stroke-miterlimit="10"/>
<path d="M84.4727 320.375H93.865" stroke="black" stroke-miterlimit="10"/>
<path d="M84.4727 323.164H93.865" stroke="black" stroke-miterlimit="10"/>
<path d="M84.4727 325.941H93.865" stroke="black" stroke-miterlimit="10"/>
<path d="M84.4727 328.729H93.865" stroke="black" stroke-miterlimit="10"/>
<path d="M84.4727 331.506H93.865" stroke="black" stroke-miterlimit="10"/>
<path d="M84.4727 334.294H93.865" stroke="black" stroke-miterlimit="10"/>
<path d="M84.4727 337.083H93.865" stroke="black" stroke-miterlimit="10"/>
<path d="M84.4727 339.86H93.865" stroke="black" stroke-miterlimit="10"/>
<path d="M84.4727 342.648H93.865" stroke="black" stroke-miterlimit="10"/>
<path d="M84.4727 345.425H93.865" stroke="black" stroke-miterlimit="10"/>
<path d="M84.4727 348.213H93.865" stroke="black" stroke-miterlimit="10"/>
<path d="M84.4727 351.002H93.865" stroke="black" stroke-miterlimit="10"/>
<path d="M84.4727 353.779H93.865" stroke="black" stroke-miterlimit="10"/>
<path d="M84.4727 356.567H93.865" stroke="black" stroke-miterlimit="10"/>
<path d="M666.742 221.123V362.866" stroke="black" stroke-miterlimit="10"/>
<path d="M665.953 221.879H676.926" stroke="black" stroke-miterlimit="10"/>
<path d="M665.953 225.661H676.926" stroke="black" stroke-miterlimit="10"/>
<path d="M665.953 229.442H676.926" stroke="black" stroke-miterlimit="10"/>
<path d="M665.953 233.236H676.926" stroke="black" stroke-miterlimit="10"/>
<path d="M665.953 237.018H676.926" stroke="black" stroke-miterlimit="10"/>
<path d="M665.953 240.799H676.926" stroke="black" stroke-miterlimit="10"/>
<path d="M665.953 244.592H676.926" stroke="black" stroke-miterlimit="10"/>
<path d="M665.953 248.374H676.926" stroke="black" stroke-miterlimit="10"/>
<path d="M665.953 252.167H676.926" stroke="black" stroke-miterlimit="10"/>
<path d="M665.953 255.949H676.926" stroke="black" stroke-miterlimit="10"/>
<path d="M665.953 259.731H676.926" stroke="black" stroke-miterlimit="10"/>
<path d="M665.953 263.524H676.926" stroke="black" stroke-miterlimit="10"/>
<path d="M665.953 267.306H676.926" stroke="black" stroke-miterlimit="10"/>
<path d="M665.953 271.099H676.926" stroke="black" stroke-miterlimit="10"/>
<path d="M665.953 274.88H676.926" stroke="black" stroke-miterlimit="10"/>
<path d="M665.953 278.662H676.926" stroke="black" stroke-miterlimit="10"/>
<path d="M665.953 282.456H676.926" stroke="black" stroke-miterlimit="10"/>
<path d="M665.953 286.237H676.926" stroke="black" stroke-miterlimit="10"/>
<path d="M665.953 290.019H676.926" stroke="black" stroke-miterlimit="10"/>
<path d="M665.953 293.812H676.926" stroke="black" stroke-miterlimit="10"/>
<path d="M665.953 297.594H676.926" stroke="black" stroke-miterlimit="10"/>
<path d="M665.953 301.387H676.926" stroke="black" stroke-miterlimit="10"/>
<path d="M665.953 305.169H676.926" stroke="black" stroke-miterlimit="10"/>
<path d="M665.953 308.951H676.926" stroke="black" stroke-miterlimit="10"/>
<path d="M665.953 312.744H676.926" stroke="black" stroke-miterlimit="10"/>
<path d="M665.953 316.525H676.926" stroke="black" stroke-miterlimit="10"/>
<path d="M665.953 320.308H676.926" stroke="black" stroke-miterlimit="10"/>
<path d="M665.953 324.1H676.926" stroke="black" stroke-miterlimit="10"/>
<path d="M665.953 327.882H676.926" stroke="black" stroke-miterlimit="10"/>
<path d="M665.953 331.675H676.926" stroke="black" stroke-miterlimit="10"/>
<path d="M665.953 335.457H676.926" stroke="black" stroke-miterlimit="10"/>
<path d="M665.953 339.239H676.926" stroke="black" stroke-miterlimit="10"/>
<path d="M665.953 343.032H676.926" stroke="black" stroke-miterlimit="10"/>
<path d="M665.953 346.814H676.926" stroke="black" stroke-miterlimit="10"/>
<path d="M665.953 350.606H676.926" stroke="black" stroke-miterlimit="10"/>
<path d="M665.953 354.389H676.926" stroke="black" stroke-miterlimit="10"/>
<path d="M665.953 358.17H676.926" stroke="black" stroke-miterlimit="10"/>
<path d="M665.953 361.963H676.926" stroke="black" stroke-miterlimit="10"/>
<path d="M742.64 51.8003H679.422V221.134H742.64V51.8003Z" fill="white" stroke="black" stroke-miterlimit="10"/>
<path d="M749.887 220.615H672.547V305.451H749.887V220.615Z" fill="white" stroke="black" stroke-miterlimit="10"/>
<path d="M758.228 305.451H664.191V360.812H758.228V305.451Z" fill="white" stroke="black" stroke-miterlimit="10"/>
<path d="M697.389 227.527V232.454H689.098V227.527H697.389Z" fill="black" fill-opacity="0.5" stroke="black"/>
<path d="M697.389 237.258V242.185H689.098V237.258H697.389Z" fill="black" fill-opacity="0.5" stroke="black"/>
<path d="M697.389 246.989V251.916H689.098V246.989H697.389Z" fill="black" fill-opacity="0.5" stroke="black"/>
<path d="M697.389 256.709V261.636H689.098V256.709H697.389Z" fill="black" fill-opacity="0.5" stroke="black"/>
<path d="M697.389 266.44V271.367H689.098V266.44H697.389Z" fill="black" fill-opacity="0.5" stroke="black"/>
<path d="M697.389 285.902V290.829H689.098V285.902H697.389Z" fill="black" fill-opacity="0.5" stroke="black"/>
<path d="M697.389 295.633V300.56H689.098V295.633H697.389Z" fill="black" fill-opacity="0.5" stroke="black"/>
<path d="M709.369 227.527V232.454H701.078V227.527H709.369Z" fill="black" fill-opacity="0.5" stroke="black"/>
<path d="M709.369 237.258V242.185H701.078V237.258H709.369Z" fill="black" fill-opacity="0.5" stroke="black"/>
<path d="M709.369 246.989V251.916H701.078V246.989H709.369Z" fill="black" fill-opacity="0.5" stroke="black"/>
<path d="M709.369 256.709V261.636H701.078V256.709H709.369Z" fill="black" fill-opacity="0.5" stroke="black"/>
<path d="M709.369 266.44V271.367H701.078V266.44H709.369Z" fill="black" fill-opacity="0.5" stroke="black"/>
<path d="M709.369 276.171V281.098H701.078V276.171H709.369Z" fill="black" fill-opacity="0.5" stroke="black"/>
<path d="M709.369 285.902V290.829H701.078V285.902H709.369Z" fill="black" fill-opacity="0.5" stroke="black"/>
<path d="M709.369 295.633V300.56H701.078V295.633H709.369Z" fill="black" fill-opacity="0.5" stroke="black"/>
<path d="M721.346 227.527V232.454H713.055V227.527H721.346Z" fill="black" fill-opacity="0.5" stroke="black"/>
<path d="M721.346 237.258V242.185H713.055V237.258H721.346Z" fill="black" fill-opacity="0.5" stroke="black"/>
<path d="M721.346 246.989V251.916H713.055V246.989H721.346Z" fill="black" fill-opacity="0.5" stroke="black"/>
<path d="M721.346 266.44V271.367H713.055V266.44H721.346Z" fill="black" fill-opacity="0.5" stroke="black"/>
<path d="M721.346 276.171V281.098H713.055V276.171H721.346Z" fill="black" fill-opacity="0.5" stroke="black"/>
<path d="M721.346 295.633V300.56H713.055V295.633H721.346Z" fill="black" fill-opacity="0.5" stroke="black"/>
<path d="M733.322 227.527V232.454H725.031V227.527H733.322Z" fill="black" fill-opacity="0.5" stroke="black"/>
<path d="M733.322 237.258V242.185H725.031V237.258H733.322Z" fill="black" fill-opacity="0.5" stroke="black"/>
<path d="M733.322 246.989V251.916H725.031V246.989H733.322Z" fill="black" fill-opacity="0.5" stroke="black"/>
<path d="M733.322 256.709V261.636H725.031V256.709H733.322Z" fill="black" fill-opacity="0.5" stroke="black"/>
<path d="M733.322 266.44V271.367H725.031V266.44H733.322Z" fill="black" fill-opacity="0.5" stroke="black"/>
<path d="M733.322 285.902V290.829H725.031V285.902H733.322Z" fill="black" fill-opacity="0.5" stroke="black"/>
<path d="M733.322 295.633V300.56H725.031V295.633H733.322Z" fill="black" fill-opacity="0.5" stroke="black"/>
<path d="M703.385 55.4385V60.3652H695.094V55.4385H703.385Z" fill="black" fill-opacity="0.5" stroke="black"/>
<path d="M703.385 65.1694V70.0962H695.094V65.1694H703.385Z" fill="black" fill-opacity="0.5" stroke="black"/>
<path d="M703.385 74.8896V79.8164H695.094V74.8896H703.385Z" fill="black" fill-opacity="0.5" stroke="black"/>
<path d="M703.385 84.6206V89.5474H695.094V84.6206H703.385Z" fill="black" fill-opacity="0.5" stroke="black"/>
<path d="M703.385 94.3516V99.2783H695.094V94.3516H703.385Z" fill="black" fill-opacity="0.5" stroke="black"/>
<path d="M703.385 104.083V109.009H695.094V104.083H703.385Z" fill="black" fill-opacity="0.5" stroke="black"/>
<path d="M703.385 113.813V118.74H695.094V113.813H703.385Z" fill="black" fill-opacity="0.5" stroke="black"/>
<path d="M703.385 123.533V128.46H695.094V123.533H703.385Z" fill="black" fill-opacity="0.5" stroke="black"/>
<path d="M703.385 133.264V138.191H695.094V133.264H703.385Z" fill="black" fill-opacity="0.5" stroke="black"/>
<path d="M703.385 142.996V147.922H695.094V142.996H703.385Z" fill="black" fill-opacity="0.5" stroke="black"/>
<path d="M703.385 152.727V157.653H695.094V152.727H703.385Z" fill="black" fill-opacity="0.5" stroke="black"/>
<path d="M703.385 162.458V167.384H695.094V162.458H703.385Z" fill="black" fill-opacity="0.5" stroke="black"/>
<path d="M703.385 172.177V177.104H695.094V172.177H703.385Z" fill="black" fill-opacity="0.5" stroke="black"/>
<path d="M703.385 181.908V186.835H695.094V181.908H703.385Z" fill="black" fill-opacity="0.5" stroke="black"/>
<path d="M703.385 191.639V196.566H695.094V191.639H703.385Z" fill="black" fill-opacity="0.5" stroke="black"/>
<path d="M703.385 201.37V206.297H695.094V201.37H703.385Z" fill="black" fill-opacity="0.5" stroke="black"/>
<path d="M703.385 211.101V216.028H695.094V211.101H703.385Z" fill="black" fill-opacity="0.5" stroke="black"/>
<path d="M715.361 55.4385V60.3652H707.07V55.4385H715.361Z" fill="black" fill-opacity="0.5" stroke="black"/>
<path d="M715.361 65.1694V70.0962H707.07V65.1694H715.361Z" fill="black" fill-opacity="0.5" stroke="black"/>
<path d="M715.361 74.8896V79.8164H707.07V74.8896H715.361Z" fill="black" fill-opacity="0.5" stroke="black"/>
<path d="M715.361 94.3516V99.2783H707.07V94.3516H715.361Z" fill="black" fill-opacity="0.5" stroke="black"/>
<path d="M715.361 113.813V118.74H707.07V113.813H715.361Z" fill="black" fill-opacity="0.5" stroke="black"/>
<path d="M715.361 123.533V128.46H707.07V123.533H715.361Z" fill="black" fill-opacity="0.5" stroke="black"/>
<path d="M715.361 142.996V147.922H707.07V142.996H715.361Z" fill="black" fill-opacity="0.5" stroke="black"/>
<path d="M715.361 152.727V157.653H707.07V152.727H715.361Z" fill="black" fill-opacity="0.5" stroke="black"/>
<path d="M715.361 162.458V167.384H707.07V162.458H715.361Z" fill="black" fill-opacity="0.5" stroke="black"/>
<path d="M715.361 181.908V186.835H707.07V181.908H715.361Z" fill="black" fill-opacity="0.5" stroke="black"/>
<path d="M715.361 191.639V196.566H707.07V191.639H715.361Z" fill="black" fill-opacity="0.5" stroke="black"/>
<path d="M715.361 211.101V216.028H707.07V211.101H715.361Z" fill="black" fill-opacity="0.5" stroke="black"/>
<path d="M727.34 55.4385V60.3652H719.049V55.4385H727.34Z" fill="black" fill-opacity="0.5" stroke="black"/>
<path d="M727.34 74.8896V79.8164H719.049V74.8896H727.34Z" fill="black" fill-opacity="0.5" stroke="black"/>
<path d="M727.34 84.6206V89.5474H719.049V84.6206H727.34Z" fill="black" fill-opacity="0.5" stroke="black"/>
<path d="M727.34 94.3516V99.2783H719.049V94.3516H727.34Z" fill="black" fill-opacity="0.5" stroke="black"/>
<path d="M727.34 104.083V109.009H719.049V104.083H727.34Z" fill="black" fill-opacity="0.5" stroke="black"/>
<path d="M727.34 113.813V118.74H719.049V113.813H727.34Z" fill="black" fill-opacity="0.5" stroke="black"/>
<path d="M727.34 123.533V128.46H719.049V123.533H727.34Z" fill="black" fill-opacity="0.5" stroke="black"/>
<path d="M727.34 133.264V138.191H719.049V133.264H727.34Z" fill="black" fill-opacity="0.5" stroke="black"/>
<path d="M727.34 142.996V147.922H719.049V142.996H727.34Z" fill="black" fill-opacity="0.5" stroke="black"/>
<path d="M727.34 152.727V157.653H719.049V152.727H727.34Z" fill="black" fill-opacity="0.5" stroke="black"/>
<path d="M727.34 162.458V167.384H719.049V162.458H727.34Z" fill="black" fill-opacity="0.5" stroke="black"/>
<path d="M727.34 172.177V177.104H719.049V172.177H727.34Z" fill="black" fill-opacity="0.5" stroke="black"/>
<path d="M727.34 181.908V186.835H719.049V181.908H727.34Z" fill="black" fill-opacity="0.5" stroke="black"/>
<path d="M727.34 201.37V206.297H719.049V201.37H727.34Z" fill="black" fill-opacity="0.5" stroke="black"/>
<path d="M727.34 211.101V216.028H719.049V211.101H727.34Z" fill="black" fill-opacity="0.5" stroke="black"/>
<path d="M692.75 311.211V316.138H684.459V311.211H692.75Z" fill="black" fill-opacity="0.5" stroke="black"/>
<path d="M692.75 320.943V325.87H684.459V320.943H692.75Z" fill="black" fill-opacity="0.5" stroke="black"/>
<path d="M692.75 330.674V335.601H684.459V330.674H692.75Z" fill="black" fill-opacity="0.5" stroke="black"/>
<path d="M692.75 340.405V345.332H684.459V340.405H692.75Z" fill="black" fill-opacity="0.5" stroke="black"/>
<path d="M692.75 350.125V355.052H684.459V350.125H692.75Z" fill="black" fill-opacity="0.5" stroke="black"/>
<path d="M704.729 311.212V316.139H696.438V311.212H704.729Z" fill="black" fill-opacity="0.5" stroke="black"/>
<path d="M704.729 330.674V335.601H696.438V330.674H704.729Z" fill="black" fill-opacity="0.5" stroke="black"/>
<path d="M704.729 340.405V345.332H696.438V340.405H704.729Z" fill="black" fill-opacity="0.5" stroke="black"/>
<path d="M704.729 350.125V355.052H696.438V350.125H704.729Z" fill="black" fill-opacity="0.5" stroke="black"/>
<path d="M716.705 311.212V316.139H708.414V311.212H716.705Z" fill="black" fill-opacity="0.5" stroke="black"/>
<path d="M716.705 320.943V325.87H708.414V320.943H716.705Z" fill="black" fill-opacity="0.5" stroke="black"/>
<path d="M716.705 330.674V335.601H708.414V330.674H716.705Z" fill="black" fill-opacity="0.5" stroke="black"/>
<path d="M716.705 340.405V345.332H708.414V340.405H716.705Z" fill="black" fill-opacity="0.5" stroke="black"/>
<path d="M716.705 350.125V355.052H708.414V350.125H716.705Z" fill="black" fill-opacity="0.5" stroke="black"/>
<path d="M728.684 311.212V316.139H720.393V311.212H728.684Z" fill="black" fill-opacity="0.5" stroke="black"/>
<path d="M728.684 320.943V325.87H720.393V320.943H728.684Z" fill="black" fill-opacity="0.5" stroke="black"/>
<path d="M728.684 350.125V355.052H720.393V350.125H728.684Z" fill="black" fill-opacity="0.5" stroke="black"/>
<path d="M740.66 311.212V316.139H732.369V311.212H740.66Z" fill="black" fill-opacity="0.5" stroke="black"/>
<path d="M740.66 320.943V325.87H732.369V320.943H740.66Z" fill="black" fill-opacity="0.5" stroke="black"/>
<path d="M740.66 330.674V335.601H732.369V330.674H740.66Z" fill="black" fill-opacity="0.5" stroke="black"/>
<path d="M740.66 340.405V345.332H732.369V340.405H740.66Z" fill="black" fill-opacity="0.5" stroke="black"/>
<path d="M740.66 350.125V355.052H732.369V350.125H740.66Z" fill="black" fill-opacity="0.5" stroke="black"/>
<path d="M88.5303 323.707H31.582V358.509H88.5303V323.707Z" fill="white" stroke="black" stroke-miterlimit="10"/>
<path d="M59.9065 300.958L77.1899 312.789L94.4732 324.62H59.9065H25.3398L42.6232 312.789L59.9065 300.958Z" fill="white" stroke="black" stroke-miterlimit="10"/>
<path d="M80.1367 337.681V334.712H68.5882V337.681H80.1367Z" fill="white" stroke="black" stroke-miterlimit="10"/>
<path d="M80.1484 342.716V339.747H68.5999V342.716H80.1484Z" fill="white" stroke="black" stroke-miterlimit="10"/>
<path d="M80.1367 347.751V344.782H68.5881V347.751H80.1367Z" fill="white" stroke="black" stroke-miterlimit="10"/>
<path d="M65.3477 337.693V334.724H53.7991V337.693H65.3477Z" fill="white" stroke="black" stroke-miterlimit="10"/>
<path d="M65.3477 342.716V339.747H53.7991V342.716H65.3477Z" fill="white" stroke="black" stroke-miterlimit="10"/>
<path d="M65.3477 347.751V344.782H53.799V347.751H65.3477Z" fill="white" stroke="black" stroke-miterlimit="10"/>
<path d="M51.2148 337.693V334.724H39.6663V337.693H51.2148Z" fill="white" stroke="black" stroke-miterlimit="10"/>
<path d="M51.2266 342.727V339.758H39.678V342.727H51.2266Z" fill="white" stroke="black" stroke-miterlimit="10"/>
<path d="M51.2148 347.751V344.782H39.6662V347.751H51.2148Z" fill="white" stroke="black" stroke-miterlimit="10"/>
<path d="M827.804 314.215H751.873V358.508H827.804V314.215Z" fill="white" stroke="black" stroke-miterlimit="10"/>
<path d="M789.905 283.754L812.946 299.525L835.998 315.295H789.905H743.812L766.865 299.525L789.905 283.754Z" fill="white" stroke="black" stroke-miterlimit="10"/>
<path d="M816.875 332.725V328.763H801.477V332.725H816.875Z" fill="white" stroke="black" stroke-miterlimit="10"/>
<path d="M816.875 339.431V335.468H801.477V339.431H816.875Z" fill="white" stroke="black" stroke-miterlimit="10"/>
<path d="M816.875 346.136V342.174H801.477V346.136H816.875Z" fill="white" stroke="black" stroke-miterlimit="10"/>
<path d="M797.152 332.725V328.762H781.754V332.725H797.152Z" fill="white" stroke="black" stroke-miterlimit="10"/>
<path d="M797.152 339.431V335.468H781.754V339.431H797.152Z" fill="white" stroke="black" stroke-miterlimit="10"/>
<path d="M797.152 346.136V342.174H781.754V346.136H797.152Z" fill="white" stroke="black" stroke-miterlimit="10"/>
<path d="M778.312 332.737V328.774H762.914V332.737H778.312Z" fill="white" stroke="black" stroke-miterlimit="10"/>
<path d="M778.312 339.442V335.479H762.914V339.442H778.312Z" fill="white" stroke="black" stroke-miterlimit="10"/>
<path d="M778.324 346.147V342.185H762.926V346.147H778.324Z" fill="white" stroke="black" stroke-miterlimit="10"/>
<path d="M373.277 109.193V165.503" stroke="black" stroke-miterlimit="10"/>
<path d="M381.688 133.385V164.091" stroke="black" stroke-miterlimit="10"/>
<path d="M341.352 162.206V310.396" stroke="black" stroke-miterlimit="10"/>
<path d="M340.664 162.996H350.068" stroke="black" stroke-miterlimit="10"/>
<path d="M340.664 166.947H350.068" stroke="black" stroke-miterlimit="10"/>
<path d="M340.664 170.91H350.068" stroke="black" stroke-miterlimit="10"/>
<path d="M340.664 174.872H350.068" stroke="black" stroke-miterlimit="10"/>
<path d="M340.664 178.823H350.068" stroke="black" stroke-miterlimit="10"/>
<path d="M340.664 182.786H350.068" stroke="black" stroke-miterlimit="10"/>
<path d="M340.664 186.748H350.068" stroke="black" stroke-miterlimit="10"/>
<path d="M340.664 190.699H350.068" stroke="black" stroke-miterlimit="10"/>
<path d="M340.664 194.662H350.068" stroke="black" stroke-miterlimit="10"/>
<path d="M340.664 198.613H350.068" stroke="black" stroke-miterlimit="10"/>
<path d="M340.664 202.575H350.068" stroke="black" stroke-miterlimit="10"/>
<path d="M340.664 206.538H350.068" stroke="black" stroke-miterlimit="10"/>
<path d="M340.664 210.489H350.068" stroke="black" stroke-miterlimit="10"/>
<path d="M340.664 214.451H350.068" stroke="black" stroke-miterlimit="10"/>
<path d="M340.664 218.414H350.068" stroke="black" stroke-miterlimit="10"/>
<path d="M340.664 222.365H350.068" stroke="black" stroke-miterlimit="10"/>
<path d="M340.664 226.327H350.068" stroke="black" stroke-miterlimit="10"/>
<path d="M340.664 230.278H350.068" stroke="black" stroke-miterlimit="10"/>
<path d="M340.664 234.24H350.068" stroke="black" stroke-miterlimit="10"/>
<path d="M340.664 238.203H350.068" stroke="black" stroke-miterlimit="10"/>
<path d="M340.664 242.154H350.068" stroke="black" stroke-miterlimit="10"/>
<path d="M340.664 246.116H350.068" stroke="black" stroke-miterlimit="10"/>
<path d="M340.664 250.079H350.068" stroke="black" stroke-miterlimit="10"/>
<path d="M340.664 254.03H350.068" stroke="black" stroke-miterlimit="10"/>
<path d="M340.664 257.992H350.068" stroke="black" stroke-miterlimit="10"/>
<path d="M340.664 261.943H350.068" stroke="black" stroke-miterlimit="10"/>
<path d="M340.664 265.906H350.068" stroke="black" stroke-miterlimit="10"/>
<path d="M340.664 269.868H350.068" stroke="black" stroke-miterlimit="10"/>
<path d="M340.664 273.819H350.068" stroke="black" stroke-miterlimit="10"/>
<path d="M340.664 277.782H350.068" stroke="black" stroke-miterlimit="10"/>
<path d="M340.664 281.744H350.068" stroke="black" stroke-miterlimit="10"/>
<path d="M340.664 285.695H350.068" stroke="black" stroke-miterlimit="10"/>
<path d="M340.664 289.658H350.068" stroke="black" stroke-miterlimit="10"/>
<path d="M340.664 293.609H350.068" stroke="black" stroke-miterlimit="10"/>
<path d="M340.664 297.571H350.068" stroke="black" stroke-miterlimit="10"/>
<path d="M340.664 301.534H350.068" stroke="black" stroke-miterlimit="10"/>
<path d="M340.664 305.485H350.068" stroke="black" stroke-miterlimit="10"/>
<path d="M340.664 309.447H350.068" stroke="black" stroke-miterlimit="10"/>
<path d="M396.984 163.335H349.57V252.393H396.984V163.335Z" fill="white" stroke="black" stroke-miterlimit="10"/>
<path d="M365.375 212.588H333.766V257.676H365.375V212.588Z" fill="white" stroke="black" stroke-miterlimit="10"/>
<path d="M396.984 240.856H333.766V359.92H396.984V240.856Z" fill="white" stroke="black" stroke-miterlimit="10"/>
<path d="M349.57 219.113H339.975V235.121H349.57V219.113Z" fill="white" stroke="black" stroke-miterlimit="10"/>
<path d="M389.644 171.666H368.195V181.171H389.644V171.666Z" fill="white" stroke="black" stroke-miterlimit="10"/>
<path d="M389.644 185.788H368.195V195.293H389.644V185.788Z" fill="white" stroke="black" stroke-miterlimit="10"/>
<path d="M389.644 199.2H368.195V208.705H389.644V199.2Z" fill="white" stroke="black" stroke-miterlimit="10"/>
<path d="M350.256 248.716V252.785H340.475V248.716H350.256Z" fill="black" fill-opacity="0.5" stroke="black"/>
<path d="M350.256 257.059V261.127H340.475V257.059H350.256Z" fill="black" fill-opacity="0.5" stroke="black"/>
<path d="M364.164 248.716V252.785H354.383V248.716H364.164Z" fill="black" fill-opacity="0.5" stroke="black"/>
<path d="M364.164 257.059V261.127H354.383V257.059H364.164Z" fill="black" fill-opacity="0.5" stroke="black"/>
<path d="M378.059 248.716V252.785H368.277V248.716H378.059Z" fill="black" fill-opacity="0.5" stroke="black"/>
<path d="M378.059 257.059V261.127H368.277V257.059H378.059Z" fill="black" fill-opacity="0.5" stroke="black"/>
<path d="M391.969 248.716V252.785H382.188V248.716H391.969Z" fill="black" fill-opacity="0.5" stroke="black"/>
<path d="M391.969 257.059V261.127H382.188V257.059H391.969Z" fill="black" fill-opacity="0.5" stroke="black"/>
<path d="M350.256 265.39V269.458H340.475V265.39H350.256Z" fill="black" fill-opacity="0.5" stroke="black"/>
<path d="M350.256 273.722V277.79H340.475V273.722H350.256Z" fill="black" fill-opacity="0.5" stroke="black"/>
<path d="M364.164 265.39V269.458H354.383V265.39H364.164Z" fill="black" fill-opacity="0.5" stroke="black"/>
<path d="M364.164 273.721V277.79H354.383V273.721H364.164Z" fill="black" fill-opacity="0.5" stroke="black"/>
<path d="M378.059 265.39V269.458H368.277V265.39H378.059Z" fill="black" fill-opacity="0.5" stroke="black"/>
<path d="M378.059 273.722V277.79H368.277V273.722H378.059Z" fill="black" fill-opacity="0.5" stroke="black"/>
<path d="M391.969 265.39V269.458H382.188V265.39H391.969Z" fill="black" fill-opacity="0.5" stroke="black"/>
<path d="M391.969 273.721V277.79H382.188V273.721H391.969Z" fill="black" fill-opacity="0.5" stroke="black"/>
<path d="M350.256 282.053V286.121H340.475V282.053H350.256Z" fill="black" fill-opacity="0.5" stroke="black"/>
<path d="M350.256 290.383V294.452H340.475V290.383H350.256Z" fill="black" fill-opacity="0.5" stroke="black"/>
<path d="M364.164 282.052V286.121H354.383V282.052H364.164Z" fill="black" fill-opacity="0.5" stroke="black"/>
<path d="M364.164 290.383V294.452H354.383V290.383H364.164Z" fill="black" fill-opacity="0.5" stroke="black"/>
<path d="M378.059 282.053V286.121H368.277V282.053H378.059Z" fill="black" fill-opacity="0.5" stroke="black"/>
<path d="M378.059 290.383V294.452H368.277V290.383H378.059Z" fill="black" fill-opacity="0.5" stroke="black"/>
<path d="M391.969 282.052V286.121H382.188V282.052H391.969Z" fill="black" fill-opacity="0.5" stroke="black"/>
<path d="M391.969 290.383V294.452H382.188V290.383H391.969Z" fill="black" fill-opacity="0.5" stroke="black"/>
<path d="M350.256 298.715V302.783H340.475V298.715H350.256Z" fill="black" fill-opacity="0.5" stroke="black"/>
<path d="M350.256 307.046V311.114H340.475V307.046H350.256Z" fill="black" fill-opacity="0.5" stroke="black"/>
<path d="M364.164 298.715V302.783H354.383V298.715H364.164Z" fill="black" fill-opacity="0.5" stroke="black"/>
<path d="M364.164 307.046V311.114H354.383V307.046H364.164Z" fill="black" fill-opacity="0.5" stroke="black"/>
<path d="M378.059 298.715V302.783H368.277V298.715H378.059Z" fill="black" fill-opacity="0.5" stroke="black"/>
<path d="M378.059 307.046V311.114H368.277V307.046H378.059Z" fill="black" fill-opacity="0.5" stroke="black"/>
<path d="M391.969 298.715V302.783H382.188V298.715H391.969Z" fill="black" fill-opacity="0.5" stroke="black"/>
<path d="M391.969 307.046V311.114H382.188V307.046H391.969Z" fill="black" fill-opacity="0.5" stroke="black"/>
<path d="M355.994 160.354H354.695V162.895H355.994V160.354Z" fill="white" stroke="black" stroke-miterlimit="10"/>
<path d="M360.633 147.09C361.361 147.816 361.938 148.679 362.331 149.628C362.725 150.578 362.928 151.595 362.929 152.623C362.929 153.651 362.727 154.669 362.334 155.619C361.942 156.568 361.366 157.431 360.639 158.159C359.913 158.886 359.05 159.463 358.101 159.857C357.151 160.25 356.134 160.453 355.106 160.454C354.078 160.454 353.06 160.252 352.11 159.86C351.161 159.467 350.297 158.891 349.57 158.164" fill="white"/>
<path d="M360.633 147.09C361.361 147.816 361.938 148.679 362.331 149.628C362.725 150.578 362.928 151.595 362.929 152.623C362.929 153.651 362.727 154.669 362.334 155.619C361.942 156.568 361.366 157.431 360.639 158.159C359.913 158.886 359.05 159.463 358.101 159.857C357.151 160.25 356.134 160.453 355.106 160.454C354.078 160.454 353.06 160.252 352.11 159.86C351.161 159.467 350.297 158.891 349.57 158.164" stroke="black" stroke-miterlimit="10"/>
<path d="M524.029 255.949H510.336V293.282H524.029V255.949Z" fill="white" stroke="black" stroke-miterlimit="10"/>
<path d="M582.777 299.999H507.514V360.71H582.777V299.999Z" fill="white" stroke="black" stroke-miterlimit="10"/>
<path d="M545.151 255.949L568.192 278.459L591.233 300.981H545.151H499.059L522.099 278.459L545.151 255.949Z" fill="white" stroke="black" stroke-miterlimit="10"/>
<path d="M571.916 309.673H566.373V340.424H571.916V309.673Z" fill="white" stroke="black" stroke-miterlimit="10"/>
<path d="M557.195 309.673H514.613V340.424H557.195V309.673Z" fill="white" stroke="black" stroke-miterlimit="10"/>
<path d="M347.661 337.173H333.686V352.277H347.661V337.173Z" fill="white" stroke="black" stroke-miterlimit="10"/>
<path d="M349.018 352.181H332.145V358.509H349.018V352.181Z" fill="white" stroke="black" stroke-miterlimit="10"/>
<path d="M340.663 346.486C341.636 346.486 342.425 345.698 342.425 344.725C342.425 343.752 341.636 342.964 340.663 342.964C339.691 342.964 338.902 343.752 338.902 344.725C338.902 345.698 339.691 346.486 340.663 346.486Z" fill="white" stroke="black" stroke-miterlimit="10"/>
<path d="M340.661 332.725C341.634 332.725 342.423 331.936 342.423 330.964C342.423 329.991 341.634 329.203 340.661 329.203C339.689 329.203 338.9 329.991 338.9 330.964C338.9 331.936 339.689 332.725 340.661 332.725Z" fill="white" stroke="black" stroke-miterlimit="10"/>
<path d="M349.907 340.21C349.951 338.969 349.744 337.733 349.299 336.574C348.854 335.415 348.181 334.357 347.318 333.464C346.456 332.571 345.423 331.861 344.28 331.376C343.137 330.891 341.909 330.641 340.668 330.641C339.426 330.641 338.198 330.891 337.055 331.376C335.912 331.861 334.879 332.571 334.017 333.464C333.154 334.357 332.481 335.415 332.036 336.574C331.591 337.733 331.384 338.969 331.428 340.21H349.907Z" fill="white" stroke="black" stroke-miterlimit="10"/>
<path d="M194.269 338.945H180.293V354.05H194.269V338.945Z" fill="white" stroke="black" stroke-miterlimit="10"/>
<path d="M196.1 354.29H179.227V358.508H196.1V354.29Z" fill="white" stroke="black" stroke-miterlimit="10"/>
<path d="M187.281 348.258C188.253 348.258 189.042 347.47 189.042 346.497C189.042 345.525 188.253 344.736 187.281 344.736C186.308 344.736 185.52 345.525 185.52 346.497C185.52 347.47 186.308 348.258 187.281 348.258Z" fill="white" stroke="black" stroke-miterlimit="10"/>
<path d="M187.281 334.497C188.253 334.497 189.042 333.709 189.042 332.736C189.042 331.764 188.253 330.975 187.281 330.975C186.308 330.975 185.52 331.764 185.52 332.736C185.52 333.709 186.308 334.497 187.281 334.497Z" fill="white" stroke="black" stroke-miterlimit="10"/>
<path d="M196.526 341.982C196.526 339.53 195.552 337.178 193.818 335.444C192.085 333.71 189.733 332.736 187.281 332.736C184.829 332.736 182.477 333.71 180.743 335.444C179.009 337.178 178.035 339.53 178.035 341.982H196.526Z" fill="white" stroke="black" stroke-miterlimit="10"/>
<path d="M159.189 321.598H156.025V358.509H159.189V321.598Z" fill="white" stroke="black" stroke-miterlimit="10"/>
<path d="M182.415 299.93C182.421 298.506 182.077 297.102 181.415 295.841C180.752 294.58 179.79 293.501 178.614 292.698C177.438 291.894 176.082 291.392 174.667 291.234C173.251 291.076 171.818 291.267 170.494 291.791C167.198 288.885 162.956 287.279 158.561 287.276C156.96 287.281 155.365 287.498 153.82 287.919C153.191 287.25 152.374 286.786 151.477 286.587C150.581 286.389 149.645 286.465 148.792 286.806C147.939 287.148 147.208 287.738 146.696 288.5C146.183 289.262 145.912 290.161 145.918 291.08C145.923 291.462 145.98 291.842 146.087 292.209C145.617 292.646 145.173 293.11 144.755 293.597C143.98 293.057 143.058 292.766 142.113 292.762C141.371 292.748 140.636 292.917 139.975 293.255C139.313 293.592 138.745 294.088 138.321 294.697C137.897 295.307 137.629 296.012 137.543 296.749C137.456 297.487 137.552 298.234 137.824 298.926C136.383 299.682 135.222 300.878 134.511 302.341C133.8 303.804 133.575 305.457 133.871 307.056C134.166 308.656 134.965 310.119 136.152 311.232C137.338 312.344 138.85 313.048 140.465 313.24C140.416 313.493 140.39 313.75 140.386 314.008C140.386 315.223 140.869 316.389 141.729 317.249C142.588 318.108 143.754 318.591 144.97 318.591C145.273 318.59 145.575 318.56 145.873 318.501C148.937 321.491 152.96 323.302 157.23 323.611C161.501 323.921 165.743 322.711 169.207 320.194C170.139 320.967 171.341 321.337 172.546 321.224C173.752 321.11 174.863 320.523 175.636 319.59C176.408 318.657 176.779 317.456 176.665 316.251C176.552 315.045 175.965 313.934 175.032 313.161C175.032 313.014 175.167 312.879 175.224 312.732C175.717 312.909 176.236 313 176.759 313.003C178.032 313.003 179.252 312.498 180.152 311.598C181.051 310.698 181.557 309.478 181.557 308.205C181.552 307.143 181.19 306.113 180.53 305.281C181.733 303.756 182.397 301.874 182.415 299.93Z" fill="white" stroke="black" stroke-miterlimit="10"/>
<path d="M818.681 321.91H815.43V357.188H818.681V321.91Z" fill="white" stroke="black" stroke-miterlimit="10"/>
<path d="M829.169 305.88C829.093 304.178 828.478 302.544 827.413 301.215C826.348 299.885 824.888 298.928 823.243 298.482C821.599 298.036 819.856 298.124 818.265 298.734C816.674 299.343 815.318 300.442 814.392 301.872C813.51 301.042 812.404 300.488 811.211 300.278C810.017 300.068 808.789 300.212 807.676 300.692C806.564 301.172 805.616 301.967 804.95 302.979C804.284 303.991 803.928 305.176 803.927 306.388C803.93 306.836 803.979 307.282 804.074 307.72C801.671 308.125 799.509 309.422 798.023 311.353C796.536 313.284 795.833 315.705 796.056 318.132C796.279 320.559 797.41 322.812 799.224 324.44C801.037 326.068 803.398 326.951 805.835 326.911H806.366C807.437 328.553 808.909 329.894 810.644 330.807C812.379 331.719 814.318 332.174 816.277 332.127C817.9 332.148 819.509 331.836 821.006 331.211C822.503 330.586 823.856 329.66 824.981 328.492C825.464 328.554 825.95 328.588 826.437 328.593C829.248 328.595 831.963 327.567 834.067 325.703C836.171 323.838 837.519 321.268 837.855 318.477C838.192 315.686 837.494 312.868 835.893 310.558C834.292 308.247 831.9 306.603 829.169 305.936V305.88Z" fill="white" stroke="black" stroke-miterlimit="10"/>
<path d="M833.797 336.01H831.811V357.561H833.797V336.01Z" fill="white" stroke="black" stroke-miterlimit="10"/>
<path d="M840.198 326.223C840.16 325.178 839.789 324.173 839.139 323.354C838.489 322.535 837.594 321.946 836.585 321.672C835.576 321.399 834.506 321.455 833.531 321.833C832.556 322.211 831.728 322.891 831.167 323.773C830.629 323.263 829.953 322.922 829.223 322.793C828.493 322.663 827.741 322.75 827.06 323.043C826.379 323.336 825.799 323.822 825.391 324.442C824.984 325.061 824.766 325.786 824.766 326.527C824.767 326.801 824.798 327.073 824.857 327.34C823.412 327.612 822.121 328.412 821.236 329.585C820.35 330.757 819.934 332.218 820.068 333.681C820.202 335.145 820.877 336.506 821.961 337.498C823.045 338.49 824.46 339.042 825.929 339.047H826.256C826.911 340.048 827.81 340.866 828.869 341.423C829.928 341.98 831.111 342.258 832.307 342.23C833.303 342.24 834.29 342.044 835.206 341.655C836.123 341.267 836.95 340.694 837.636 339.973C837.927 340.018 838.221 340.041 838.516 340.04C840.232 340.039 841.887 339.409 843.17 338.271C844.454 337.132 845.276 335.563 845.481 333.86C845.687 332.157 845.262 330.438 844.286 329.026C843.311 327.615 841.853 326.61 840.187 326.2L840.198 326.223Z" fill="white" stroke="black" stroke-miterlimit="10"/>
<path d="M301.445 322.642H298.193V357.92H301.445V322.642Z" fill="white" stroke="black" stroke-miterlimit="10"/>
<path d="M311.966 304.503C311.89 302.801 311.275 301.167 310.21 299.838C309.145 298.508 307.685 297.551 306.04 297.105C304.396 296.66 302.653 296.748 301.062 297.357C299.471 297.966 298.115 299.065 297.189 300.495C296.307 299.665 295.201 299.111 294.008 298.901C292.814 298.691 291.586 298.835 290.473 299.315C289.361 299.795 288.413 300.59 287.747 301.602C287.081 302.615 286.725 303.799 286.724 305.011C286.727 305.459 286.776 305.905 286.871 306.343C284.468 306.748 282.306 308.045 280.82 309.976C279.333 311.907 278.63 314.328 278.853 316.755C279.076 319.182 280.207 321.435 282.02 323.063C283.834 324.691 286.195 325.574 288.632 325.534C288.813 325.534 288.982 325.534 289.163 325.534C290.233 327.176 291.706 328.517 293.441 329.43C295.175 330.343 297.115 330.797 299.074 330.75C300.696 330.771 302.306 330.459 303.803 329.834C305.3 329.209 306.653 328.283 307.778 327.115C308.26 327.183 308.747 327.217 309.234 327.216C312.089 327.282 314.867 326.283 317.025 324.412C319.184 322.542 320.568 319.935 320.909 317.1C321.25 314.264 320.523 311.403 318.87 309.074C317.217 306.746 314.756 305.116 311.966 304.503Z" fill="white" stroke="black" stroke-miterlimit="10"/>
<path d="M316.561 336.753H314.574V358.304H316.561V336.753Z" fill="white" stroke="black" stroke-miterlimit="10"/>
<path d="M322.961 324.846C322.923 323.801 322.551 322.796 321.901 321.977C321.251 321.158 320.356 320.569 319.347 320.295C318.338 320.022 317.268 320.078 316.293 320.456C315.319 320.834 314.49 321.514 313.93 322.396C313.391 321.886 312.715 321.546 311.985 321.416C311.255 321.286 310.503 321.373 309.822 321.666C309.141 321.959 308.561 322.446 308.154 323.065C307.746 323.684 307.529 324.409 307.529 325.151C307.53 325.424 307.56 325.696 307.619 325.963C306.155 326.221 304.843 327.021 303.943 328.204C303.044 329.386 302.623 330.865 302.766 332.344C302.908 333.823 303.603 335.194 304.712 336.184C305.821 337.173 307.262 337.708 308.748 337.681H309.064C309.72 338.684 310.621 339.503 311.682 340.061C312.742 340.618 313.928 340.894 315.126 340.865C316.12 340.874 317.105 340.679 318.02 340.29C318.935 339.902 319.76 339.329 320.443 338.607C320.735 338.643 321.029 338.661 321.324 338.663C323.039 338.662 324.695 338.032 325.978 336.894C327.261 335.755 328.083 334.186 328.289 332.483C328.494 330.78 328.069 329.061 327.094 327.649C326.119 326.238 324.66 325.233 322.995 324.823L322.961 324.846Z" fill="white" stroke="black" stroke-miterlimit="10"/>
<path d="M496.88 324.529H493.629V359.807H496.88V324.529Z" fill="white" stroke="black" stroke-miterlimit="10"/>
<path d="M507.367 308.499C507.29 306.797 506.675 305.163 505.61 303.834C504.545 302.504 503.085 301.547 501.441 301.102C499.797 300.656 498.053 300.744 496.462 301.353C494.871 301.962 493.515 303.061 492.589 304.491C491.709 303.656 490.603 303.097 489.408 302.884C488.212 302.672 486.981 302.815 485.867 303.296C484.752 303.776 483.803 304.574 483.138 305.589C482.473 306.605 482.12 307.793 482.125 309.007C482.128 309.459 482.177 309.909 482.271 310.35C479.868 310.755 477.707 312.053 476.22 313.984C474.733 315.915 474.031 318.336 474.253 320.763C474.476 323.189 475.607 325.442 477.421 327.07C479.234 328.698 481.596 329.581 484.032 329.542H484.563C485.637 331.18 487.11 332.517 488.845 333.428C490.579 334.338 492.516 334.792 494.475 334.746C496.096 334.769 497.705 334.46 499.202 333.837C500.699 333.213 502.053 332.289 503.178 331.122C503.661 331.185 504.148 331.219 504.635 331.224C507.446 331.226 510.16 330.197 512.264 328.333C514.368 326.469 515.716 323.898 516.053 321.107C516.389 318.316 515.691 315.499 514.09 313.188C512.49 310.877 510.098 309.233 507.367 308.567V308.499Z" fill="white" stroke="black" stroke-miterlimit="10"/>
<path d="M511.995 338.629H510.008V360.18H511.995V338.629Z" fill="white" stroke="black" stroke-miterlimit="10"/>
<path d="M518.394 328.83C518.354 327.786 517.981 326.783 517.33 325.966C516.679 325.149 515.784 324.561 514.776 324.289C513.767 324.017 512.698 324.074 511.724 324.452C510.751 324.83 509.923 325.51 509.363 326.392C508.825 325.882 508.149 325.541 507.419 325.412C506.689 325.282 505.937 325.369 505.256 325.662C504.575 325.955 503.995 326.441 503.587 327.061C503.179 327.68 502.962 328.405 502.962 329.146C502.963 329.42 502.993 329.692 503.052 329.959C501.603 330.231 500.309 331.036 499.423 332.215C498.537 333.393 498.124 334.861 498.266 336.328C498.407 337.796 499.093 339.158 500.187 340.145C501.282 341.133 502.707 341.675 504.181 341.666H504.509C505.166 342.667 506.067 343.485 507.128 344.042C508.188 344.599 509.373 344.877 510.571 344.849C511.565 344.858 512.55 344.662 513.465 344.274C514.379 343.885 515.204 343.313 515.888 342.591C516.179 342.636 516.474 342.659 516.769 342.659C518.492 342.669 520.159 342.045 521.452 340.905C522.746 339.765 523.574 338.19 523.781 336.478C523.987 334.767 523.557 333.04 522.572 331.625C521.587 330.211 520.116 329.208 518.439 328.808L518.394 328.83Z" fill="white" stroke="black" stroke-miterlimit="10"/>
<path d="M837.307 357.72H17.9824V368H837.307V357.72Z" fill="white" stroke="black" stroke-miterlimit="10"/>
<path d="M669.615 332.144L669.615 358.508" stroke="black" stroke-miterlimit="10"/>
<path d="M669.894 333.312C673.647 333.312 676.69 330.269 676.69 326.516C676.69 322.763 673.647 319.72 669.894 319.72C666.14 319.72 663.098 322.763 663.098 326.516C663.098 330.269 666.14 333.312 669.894 333.312Z" fill="white" stroke="black" stroke-miterlimit="10"/>
<path d="M238.047 333.696V357.922" stroke="black" stroke-miterlimit="10"/>
<path d="M238.046 334.531C241.799 334.531 244.842 331.489 244.842 327.735C244.842 323.982 241.799 320.939 238.046 320.939C234.293 320.939 231.25 323.982 231.25 327.735C231.25 331.489 234.293 334.531 238.046 334.531Z" fill="white" stroke="black" stroke-miterlimit="10"/>
</svg>
