<svg width="31" height="31" viewBox="0 0 31 31" fill="none" xmlns="http://www.w3.org/2000/svg">
<path d="M26.6988 6.13705H22.01C21.7531 6.13705 21.5067 6.23912 21.325 6.42079C21.1433 6.60247 21.0413 6.84887 21.0413 7.1058V7.64346L18.6194 5.13924C18.529 5.04548 18.4207 4.9709 18.3008 4.91996C18.181 4.86903 18.0521 4.84277 17.9219 4.84277C17.7917 4.84277 17.6628 4.86903 17.5429 4.91996C17.4231 4.9709 17.3147 5.04548 17.2244 5.13924L5.11498 17.6507C4.98274 17.7875 4.89371 17.9602 4.85902 18.1473C4.82432 18.3344 4.84549 18.5276 4.91988 18.7027C4.99428 18.8778 5.1186 19.0272 5.27734 19.1321C5.43608 19.237 5.6222 19.2929 5.81249 19.2927H7.66764V30.0313C7.66764 30.2882 7.76971 30.5346 7.95139 30.7163C8.13306 30.898 8.37947 31.0001 8.6364 31.0001H27.2074C27.4643 31.0001 27.7107 30.898 27.8924 30.7163C28.0741 30.5346 28.1761 30.2882 28.1761 30.0313V19.2927H30.0313C30.2216 19.2929 30.4077 19.237 30.5664 19.1321C30.7252 19.0272 30.8495 18.8778 30.9239 18.7027C30.9983 18.5276 31.0194 18.3344 30.9847 18.1473C30.9501 17.9602 30.861 17.7875 30.7288 17.6507L27.6675 14.4877V7.1058C27.6675 6.84887 27.5655 6.60247 27.3838 6.42079C27.2021 6.23912 26.9557 6.13705 26.6988 6.13705ZM27.745 17.3552H27.2074C26.9504 17.3552 26.704 17.4573 26.5224 17.6389C26.3407 17.8206 26.2386 18.067 26.2386 18.3239V29.0626H9.60515V18.3239C9.60515 18.067 9.50308 17.8206 9.32141 17.6389C9.13973 17.4573 8.89332 17.3552 8.6364 17.3552H8.09874L17.9219 7.20752L21.3125 10.7144C21.4466 10.8535 21.6192 10.9493 21.8082 10.9896C21.9971 11.0299 22.1938 11.0127 22.3729 10.9403C22.5521 10.8679 22.7055 10.7436 22.8134 10.5834C22.9214 10.4232 22.979 10.2343 22.9788 10.0411V8.07455H25.73V14.8558C25.7298 15.1069 25.827 15.3483 26.0013 15.5291L27.745 17.3552Z" fill="white"/>
<path d="M0.968752 29.0625C0.711823 29.0625 0.465417 29.1646 0.283741 29.3463C0.102065 29.528 0 29.7744 0 30.0313C0 30.2882 0.102065 30.5346 0.283741 30.7163C0.465417 30.898 0.711823 31 0.968752 31H3.87501C4.13194 31 4.37834 30.898 4.56002 30.7163C4.74169 30.5346 4.84376 30.2882 4.84376 30.0313C4.84376 29.7744 4.74169 29.528 4.56002 29.3463C4.37834 29.1646 4.13194 29.0625 3.87501 29.0625H3.39063V6.78125H3.87501C4.13194 6.78125 4.37834 6.67919 4.56002 6.49751C4.74169 6.31584 4.84376 6.06943 4.84376 5.8125C4.84376 5.55557 4.74169 5.30917 4.56002 5.12749C4.37834 4.94581 4.13194 4.84375 3.87501 4.84375H0.968752C0.711823 4.84375 0.465417 4.94581 0.283741 5.12749C0.102065 5.30917 0 5.55557 0 5.8125C0 6.06943 0.102065 6.31584 0.283741 6.49751C0.465417 6.67919 0.711823 6.78125 0.968752 6.78125H1.45313V29.0625H0.968752Z" fill="white"/>
<path d="M30.0313 0C29.7744 0 29.528 0.102065 29.3463 0.283741C29.1646 0.465417 29.0625 0.711823 29.0625 0.968752V1.45313H6.78125V0.968752C6.78125 0.711823 6.67919 0.465417 6.49751 0.283741C6.31584 0.102065 6.06943 0 5.8125 0C5.55557 0 5.30917 0.102065 5.12749 0.283741C4.94581 0.465417 4.84375 0.711823 4.84375 0.968752V3.87501C4.84375 4.13194 4.94581 4.37834 5.12749 4.56002C5.30917 4.74169 5.55557 4.84376 5.8125 4.84376C6.06943 4.84376 6.31584 4.74169 6.49751 4.56002C6.67919 4.37834 6.78125 4.13194 6.78125 3.87501V3.39063H29.0625V3.87501C29.0625 4.13194 29.1646 4.37834 29.3463 4.56002C29.528 4.74169 29.7744 4.84376 30.0313 4.84376C30.2882 4.84376 30.5346 4.74169 30.7163 4.56002C30.898 4.37834 31 4.13194 31 3.87501V0.968752C31 0.711823 30.898 0.465417 30.7163 0.283741C30.5346 0.102065 30.2882 0 30.0313 0Z" fill="white"/>
</svg>
