<svg width="19" height="18" viewBox="0 0 19 18" fill="none" xmlns="http://www.w3.org/2000/svg">
<path d="M6.50048 9C6.50048 7.34321 7.84322 5.99976 9.5 5.99976C11.1568 5.99976 12.5002 7.34321 12.5002 9C12.5002 10.6568 11.1568 12.0002 9.5 12.0002C7.84322 12.0002 6.50048 10.6568 6.50048 9ZM4.87859 9C4.87859 11.5524 6.94758 13.6214 9.5 13.6214C12.0524 13.6214 14.1214 11.5524 14.1214 9C14.1214 6.44758 12.0524 4.37859 9.5 4.37859C6.94758 4.37859 4.87859 6.44758 4.87859 9ZM13.2243 4.1954C13.2243 4.79152 13.7078 5.27569 14.3046 5.27569C14.9007 5.27569 15.3849 4.79152 15.3849 4.1954C15.3849 3.59927 14.9015 3.11583 14.3046 3.11583C13.7078 3.11583 13.2243 3.59927 13.2243 4.1954ZM5.86365 16.3258C4.98619 16.2858 4.50929 16.1397 4.19233 16.0161C3.77213 15.8525 3.47262 15.6577 3.15711 15.3429C2.84233 15.0281 2.64677 14.7286 2.48393 14.3084C2.36034 13.9914 2.21422 13.5145 2.17423 12.6371C2.13061 11.6884 2.12189 11.4034 2.12189 9C2.12189 6.59661 2.13134 6.31236 2.17423 5.36292C2.21422 4.48546 2.36107 4.00929 2.48393 3.6916C2.6475 3.27141 2.84233 2.97189 3.15711 2.65638C3.47189 2.3416 3.77141 2.14604 4.19233 1.9832C4.50929 1.85961 4.98619 1.71349 5.86365 1.67351C6.81236 1.62989 7.09733 1.62116 9.5 1.62116C11.9034 1.62116 12.1876 1.63061 13.1371 1.67351C14.0145 1.71349 14.4907 1.86034 14.8084 1.9832C15.2286 2.14604 15.5281 2.3416 15.8436 2.65638C16.1584 2.97116 16.3532 3.27141 16.5168 3.6916C16.6404 4.00856 16.7865 4.48546 16.8265 5.36292C16.8701 6.31236 16.8788 6.59661 16.8788 9C16.8788 11.4027 16.8701 11.6876 16.8265 12.6371C16.7865 13.5145 16.6397 13.9914 16.5168 14.3084C16.3532 14.7286 16.1584 15.0281 15.8436 15.3429C15.5288 15.6577 15.2286 15.8525 14.8084 16.0161C14.4914 16.1397 14.0145 16.2858 13.1371 16.3258C12.1884 16.3694 11.9034 16.3781 9.5 16.3781C7.09733 16.3781 6.81236 16.3694 5.86365 16.3258ZM5.7895 0.0545234C4.83134 0.0981422 4.17706 0.250081 3.60493 0.472536C3.01317 0.702262 2.51155 1.0105 2.01066 1.51066C1.5105 2.01082 1.20226 2.51244 0.972536 3.10493C0.750081 3.67706 0.598142 4.33134 0.554523 5.2895C0.510178 6.24911 0.5 6.5559 0.5 9C0.5 11.4441 0.510178 11.7509 0.554523 12.7105C0.598142 13.6687 0.750081 14.3229 0.972536 14.8951C1.20226 15.4868 1.50977 15.9892 2.01066 16.4893C2.51082 16.9895 3.01244 17.297 3.60493 17.5275C4.17779 17.7499 4.83134 17.9019 5.7895 17.9455C6.74984 17.9891 7.0559 18 9.5 18C11.9448 18 12.2509 17.9898 13.2105 17.9455C14.1687 17.9019 14.8229 17.7499 15.3951 17.5275C15.9868 17.297 16.4885 16.9895 16.9893 16.4893C17.4895 15.9892 17.797 15.4868 18.0275 14.8951C18.2499 14.3229 18.4026 13.6687 18.4455 12.7105C18.4891 11.7502 18.4993 11.4441 18.4993 9C18.4993 6.5559 18.4891 6.24911 18.4455 5.2895C18.4019 4.33134 18.2499 3.67706 18.0275 3.10493C17.797 2.51317 17.4895 2.01155 16.9893 1.51066C16.4892 1.0105 15.9868 0.702262 15.3958 0.472536C14.8229 0.250081 14.1687 0.0974152 13.2112 0.0545234C12.2516 0.0109047 11.9448 0 9.50073 0C7.0559 0 6.74984 0.0101777 5.7895 0.0545234Z" fill="white"/>
</svg>
