<svg width="19" height="18" viewBox="0 0 19 18" fill="none" xmlns="http://www.w3.org/2000/svg">
<path d="M0.5 2.09067C0.5 1.4846 0.702708 0.984598 1.10811 0.590672C1.51351 0.196727 2.04055 -0.000236511 2.68919 -0.000236511C3.32626 -0.000236511 3.84169 0.19369 4.23552 0.581581C4.64092 0.98158 4.84363 1.50278 4.84363 2.14521C4.84363 2.72703 4.64672 3.21187 4.2529 3.59976C3.8475 3.99976 3.31467 4.19976 2.65444 4.19976H2.63707C1.99999 4.19976 1.48456 3.99976 1.09073 3.59976C0.696905 3.19976 0.5 2.69672 0.5 2.09067ZM0.725869 17.9997V5.8543H4.58301V17.9997H0.725869ZM6.72008 17.9997H10.5772V11.2179C10.5772 10.7937 10.6236 10.4664 10.7162 10.2361C10.8784 9.82398 11.1245 9.47549 11.4546 9.19066C11.7847 8.9058 12.1988 8.76338 12.6969 8.76338C13.9942 8.76338 14.6429 9.67853 14.6429 11.5088V17.9997H18.5V11.0361C18.5 9.24217 18.0946 7.88157 17.2838 6.9543C16.473 6.02703 15.4016 5.56339 14.0695 5.56339C12.5753 5.56339 11.4112 6.23612 10.5772 7.58157V7.61793H10.5598L10.5772 7.58157V5.8543H6.72008C6.74324 6.24217 6.75483 7.44822 6.75483 9.47247C6.75483 11.4967 6.74324 14.3391 6.72008 17.9997Z" fill="white"/>
</svg>
