<svg width="49" height="49" viewBox="0 0 49 49" fill="none" xmlns="http://www.w3.org/2000/svg">
<rect x="1.47391" y="0.50028" width="47.0263" height="47.0263" rx="7.50419" stroke="white" stroke-width="1.00056"/>
<path d="M35.4907 24.0154C35.4913 24.2702 35.426 24.5208 35.301 24.7429C35.1761 24.965 34.9958 25.1509 34.7778 25.2827L21.2627 33.5505C21.0349 33.69 20.7739 33.7662 20.5067 33.7711C20.2396 33.776 19.976 33.7096 19.7431 33.5786C19.5125 33.4496 19.3203 33.2616 19.1865 33.0337C19.0526 32.8059 18.9818 32.5465 18.9814 32.2822V15.7486C18.9818 15.4844 19.0526 15.225 19.1865 14.9972C19.3203 14.7693 19.5125 14.5812 19.7431 14.4523C19.976 14.3213 20.2396 14.2548 20.5067 14.2598C20.7739 14.2647 21.0349 14.3409 21.2627 14.4804L34.7778 22.7482C34.9958 22.8799 35.1761 23.0659 35.301 23.288C35.426 23.51 35.4913 23.7606 35.4907 24.0154Z" fill="white"/>
</svg>
