<svg width="22" height="20" viewBox="0 0 22 20" fill="none" xmlns="http://www.w3.org/2000/svg">
<path d="M11.8652 0.996161C11.4799 0.33201 10.5208 0.332008 10.1354 0.996161L7.42132 5.67347C7.23094 6.00155 6.90189 6.22544 6.52683 6.28209L1.44052 7.05032C0.586235 7.17935 0.286575 8.25796 0.951881 8.80916L4.74097 11.9484C5.09171 12.239 5.25663 12.6973 5.17143 13.1448L4.18026 18.3499C4.02358 19.1727 4.88737 19.812 5.62852 19.4218L10.4179 16.9C10.7825 16.708 11.2182 16.708 11.5827 16.9L16.3721 19.4218C17.1132 19.812 17.977 19.1727 17.8203 18.3499L16.8292 13.1448C16.744 12.6973 16.9089 12.239 17.2596 11.9484L21.0487 8.80916C21.714 8.25796 21.4144 7.17935 20.5601 7.05032L15.4738 6.28209C15.0987 6.22544 14.7697 6.00155 14.5793 5.67347L11.8652 0.996161Z" fill="white"/>
</svg>
